<svg width="572" height="232" viewBox="0 0 572 232" fill="none" xmlns="http://www.w3.org/2000/svg">
<line x1="0.5" y1="15.5" x2="571.5" y2="15.5" stroke="#1C1C1C" stroke-opacity="0.05" stroke-linecap="round"/>
<line x1="0.5" y1="78.1666" x2="571.5" y2="78.1666" stroke="#1C1C1C" stroke-opacity="0.05" stroke-linecap="round"/>
<line x1="0.5" y1="140.833" x2="571.5" y2="140.833" stroke="#1C1C1C" stroke-opacity="0.05" stroke-linecap="round"/>
<line x1="0.5" y1="203.5" x2="571.5" y2="203.5" stroke="#1C1C1C" stroke-opacity="0.2" stroke-linecap="round"/>
<path d="M41.5703 218.273H42.6271V224.511C42.6271 225.068 42.5248 225.541 42.3203 225.93C42.1157 226.32 41.8274 226.615 41.4552 226.817C41.083 227.018 40.6441 227.119 40.1384 227.119C39.6612 227.119 39.2364 227.033 38.8643 226.859C38.4921 226.683 38.1995 226.433 37.9864 226.109C37.7734 225.786 37.6668 225.401 37.6668 224.955H38.7066C38.7066 225.202 38.7677 225.418 38.8899 225.602C39.0149 225.784 39.1853 225.926 39.4012 226.028C39.6171 226.131 39.8629 226.182 40.1384 226.182C40.4424 226.182 40.7009 226.118 40.914 225.99C41.1271 225.862 41.289 225.675 41.3998 225.428C41.5134 225.178 41.5703 224.872 41.5703 224.511V218.273ZM47.0802 227.136C46.5347 227.136 46.0532 226.999 45.6356 226.723C45.218 226.445 44.8913 226.053 44.6555 225.547C44.4197 225.038 44.3018 224.438 44.3018 223.744C44.3018 223.057 44.4197 222.46 44.6555 221.955C44.8913 221.449 45.2194 221.058 45.6399 220.783C46.0603 220.507 46.5461 220.369 47.0972 220.369C47.5234 220.369 47.86 220.44 48.1072 220.582C48.3572 220.722 48.5475 220.881 48.6782 221.06C48.8117 221.236 48.9154 221.381 48.9893 221.494H49.0745V220.455H50.0802V227H49.1086V225.994H48.9893C48.9154 226.114 48.8103 226.264 48.6739 226.446C48.5376 226.625 48.343 226.786 48.0901 226.928C47.8373 227.067 47.5007 227.136 47.0802 227.136ZM47.2166 226.233C47.62 226.233 47.9609 226.128 48.2393 225.918C48.5177 225.705 48.7293 225.411 48.8742 225.036C49.0191 224.658 49.0916 224.222 49.0916 223.727C49.0916 223.239 49.0205 222.811 48.8785 222.445C48.7364 222.075 48.5262 221.788 48.2478 221.584C47.9694 221.376 47.6257 221.273 47.2166 221.273C46.7904 221.273 46.4353 221.382 46.1512 221.601C45.87 221.817 45.6583 222.111 45.5163 222.483C45.3771 222.852 45.3075 223.267 45.3075 223.727C45.3075 224.193 45.3785 224.616 45.5205 224.997C45.6654 225.375 45.8785 225.676 46.1597 225.901C46.4438 226.122 46.7961 226.233 47.2166 226.233ZM53.0674 223.062V227H52.0617V220.455H53.0333V221.477H53.1186C53.272 221.145 53.5049 220.878 53.8174 220.676C54.1299 220.472 54.5333 220.369 55.0276 220.369C55.4708 220.369 55.8586 220.46 56.191 220.642C56.5234 220.821 56.7819 221.094 56.9666 221.46C57.1512 221.824 57.2436 222.284 57.2436 222.841V227H56.2379V222.909C56.2379 222.395 56.1043 221.994 55.8373 221.707C55.5703 221.418 55.2038 221.273 54.7379 221.273C54.4168 221.273 54.1299 221.342 53.8771 221.482C53.6271 221.621 53.4296 221.824 53.2847 222.091C53.1399 222.358 53.0674 222.682 53.0674 223.062Z" fill="#1C1C1C" fill-opacity="0.4"/>
<path d="M133.557 227V218.273H138.79V219.21H134.614V222.159H138.398V223.097H134.614V227H133.557ZM142.727 227.136C142.097 227.136 141.553 226.997 141.095 226.719C140.641 226.438 140.29 226.045 140.043 225.543C139.798 225.037 139.676 224.449 139.676 223.778C139.676 223.108 139.798 222.517 140.043 222.006C140.29 221.491 140.634 221.091 141.074 220.804C141.517 220.514 142.034 220.369 142.625 220.369C142.966 220.369 143.303 220.426 143.635 220.54C143.967 220.653 144.27 220.838 144.543 221.094C144.815 221.347 145.033 221.682 145.195 222.099C145.357 222.517 145.438 223.031 145.438 223.642V224.068H140.392V223.199H144.415C144.415 222.83 144.341 222.5 144.193 222.21C144.048 221.92 143.841 221.692 143.571 221.524C143.304 221.357 142.989 221.273 142.625 221.273C142.224 221.273 141.878 221.372 141.585 221.571C141.295 221.767 141.072 222.023 140.916 222.338C140.76 222.653 140.682 222.991 140.682 223.352V223.932C140.682 224.426 140.767 224.845 140.938 225.189C141.111 225.53 141.351 225.79 141.658 225.969C141.965 226.145 142.321 226.233 142.727 226.233C142.992 226.233 143.23 226.196 143.443 226.122C143.659 226.045 143.845 225.932 144.001 225.781C144.158 225.628 144.278 225.437 144.364 225.21L145.335 225.483C145.233 225.812 145.061 226.102 144.82 226.352C144.578 226.599 144.28 226.793 143.925 226.932C143.57 227.068 143.17 227.136 142.727 227.136ZM147.104 227V218.273H148.109V221.494H148.195C148.269 221.381 148.371 221.236 148.501 221.06C148.635 220.881 148.825 220.722 149.072 220.582C149.322 220.44 149.661 220.369 150.087 220.369C150.638 220.369 151.124 220.507 151.544 220.783C151.965 221.058 152.293 221.449 152.528 221.955C152.764 222.46 152.882 223.057 152.882 223.744C152.882 224.438 152.764 225.038 152.528 225.547C152.293 226.053 151.966 226.445 151.548 226.723C151.131 226.999 150.649 227.136 150.104 227.136C149.683 227.136 149.347 227.067 149.094 226.928C148.841 226.786 148.646 226.625 148.51 226.446C148.374 226.264 148.269 226.114 148.195 225.994H148.075V227H147.104ZM148.092 223.727C148.092 224.222 148.165 224.658 148.31 225.036C148.455 225.411 148.666 225.705 148.945 225.918C149.223 226.128 149.564 226.233 149.967 226.233C150.388 226.233 150.739 226.122 151.02 225.901C151.304 225.676 151.517 225.375 151.659 224.997C151.804 224.616 151.876 224.193 151.876 223.727C151.876 223.267 151.805 222.852 151.663 222.483C151.524 222.111 151.313 221.817 151.028 221.601C150.747 221.382 150.394 221.273 149.967 221.273C149.558 221.273 149.215 221.376 148.936 221.584C148.658 221.788 148.447 222.075 148.305 222.445C148.163 222.811 148.092 223.239 148.092 223.727Z" fill="#1C1C1C" fill-opacity="0.4"/>
<path d="M228.093 218.273H229.355L232.321 225.517H232.423L235.389 218.273H236.65V227H235.661V220.369H235.576L232.849 227H231.894L229.167 220.369H229.082V227H228.093V218.273ZM241.104 227.136C240.559 227.136 240.077 226.999 239.66 226.723C239.242 226.445 238.915 226.053 238.68 225.547C238.444 225.038 238.326 224.438 238.326 223.744C238.326 223.057 238.444 222.46 238.68 221.955C238.915 221.449 239.243 221.058 239.664 220.783C240.084 220.507 240.57 220.369 241.121 220.369C241.547 220.369 241.884 220.44 242.131 220.582C242.381 220.722 242.572 220.881 242.702 221.06C242.836 221.236 242.939 221.381 243.013 221.494H243.099V220.455H244.104V227H243.133V225.994H243.013C242.939 226.114 242.834 226.264 242.698 226.446C242.562 226.625 242.367 226.786 242.114 226.928C241.861 227.067 241.525 227.136 241.104 227.136ZM241.241 226.233C241.644 226.233 241.985 226.128 242.263 225.918C242.542 225.705 242.753 225.411 242.898 225.036C243.043 224.658 243.116 224.222 243.116 223.727C243.116 223.239 243.045 222.811 242.903 222.445C242.76 222.075 242.55 221.788 242.272 221.584C241.993 221.376 241.65 221.273 241.241 221.273C240.814 221.273 240.459 221.382 240.175 221.601C239.894 221.817 239.682 222.111 239.54 222.483C239.401 222.852 239.332 223.267 239.332 223.727C239.332 224.193 239.403 224.616 239.545 224.997C239.689 225.375 239.903 225.676 240.184 225.901C240.468 226.122 240.82 226.233 241.241 226.233ZM246.086 227V220.455H247.057V221.443H247.126C247.245 221.119 247.461 220.857 247.773 220.655C248.086 220.453 248.438 220.352 248.83 220.352C248.904 220.352 248.996 220.354 249.107 220.357C249.218 220.359 249.302 220.364 249.359 220.369V221.392C249.324 221.384 249.246 221.371 249.124 221.354C249.005 221.334 248.878 221.324 248.745 221.324C248.427 221.324 248.143 221.391 247.893 221.524C247.645 221.655 247.449 221.837 247.305 222.07C247.162 222.3 247.091 222.562 247.091 222.858V227H246.086Z" fill="#1C1C1C" fill-opacity="0.4"/>
<path d="M325.138 227H324.03L327.235 218.273H328.326L331.53 227H330.422L327.814 219.653H327.746L325.138 227ZM325.547 223.591H330.013V224.528H325.547V223.591ZM332.753 229.455V220.455H333.725V221.494H333.844C333.918 221.381 334.02 221.236 334.151 221.06C334.284 220.881 334.475 220.722 334.722 220.582C334.972 220.44 335.31 220.369 335.736 220.369C336.287 220.369 336.773 220.507 337.193 220.783C337.614 221.058 337.942 221.449 338.178 221.955C338.414 222.46 338.532 223.057 338.532 223.744C338.532 224.438 338.414 225.038 338.178 225.547C337.942 226.053 337.615 226.445 337.198 226.723C336.78 226.999 336.299 227.136 335.753 227.136C335.333 227.136 334.996 227.067 334.743 226.928C334.49 226.786 334.296 226.625 334.159 226.446C334.023 226.264 333.918 226.114 333.844 225.994H333.759V229.455H332.753ZM333.742 223.727C333.742 224.222 333.814 224.658 333.959 225.036C334.104 225.411 334.316 225.705 334.594 225.918C334.872 226.128 335.213 226.233 335.617 226.233C336.037 226.233 336.388 226.122 336.669 225.901C336.953 225.676 337.166 225.375 337.309 224.997C337.453 224.616 337.526 224.193 337.526 223.727C337.526 223.267 337.455 222.852 337.313 222.483C337.174 222.111 336.962 221.817 336.678 221.601C336.397 221.382 336.043 221.273 335.617 221.273C335.208 221.273 334.864 221.376 334.586 221.584C334.307 221.788 334.097 222.075 333.955 222.445C333.813 222.811 333.742 223.239 333.742 223.727ZM340.066 227V220.455H341.037V221.443H341.105C341.225 221.119 341.441 220.857 341.753 220.655C342.066 220.453 342.418 220.352 342.81 220.352C342.884 220.352 342.976 220.354 343.087 220.357C343.198 220.359 343.282 220.364 343.338 220.369V221.392C343.304 221.384 343.226 221.371 343.104 221.354C342.985 221.334 342.858 221.324 342.725 221.324C342.407 221.324 342.122 221.391 341.872 221.524C341.625 221.655 341.429 221.837 341.284 222.07C341.142 222.3 341.071 222.562 341.071 222.858V227H340.066Z" fill="#1C1C1C" fill-opacity="0.4"/>
<path d="M417.653 218.273H418.914L421.88 225.517H421.982L424.948 218.273H426.209V227H425.221V220.369H425.136L422.408 227H421.454L418.726 220.369H418.641V227H417.653V218.273ZM430.664 227.136C430.118 227.136 429.637 226.999 429.219 226.723C428.801 226.445 428.475 226.053 428.239 225.547C428.003 225.038 427.885 224.438 427.885 223.744C427.885 223.057 428.003 222.46 428.239 221.955C428.475 221.449 428.803 221.058 429.223 220.783C429.644 220.507 430.129 220.369 430.681 220.369C431.107 220.369 431.443 220.44 431.691 220.582C431.941 220.722 432.131 220.881 432.262 221.06C432.395 221.236 432.499 221.381 432.573 221.494H432.658V220.455H433.664V227H432.692V225.994H432.573C432.499 226.114 432.394 226.264 432.257 226.446C432.121 226.625 431.926 226.786 431.674 226.928C431.421 227.067 431.084 227.136 430.664 227.136ZM430.8 226.233C431.203 226.233 431.544 226.128 431.823 225.918C432.101 225.705 432.313 225.411 432.458 225.036C432.602 224.658 432.675 224.222 432.675 223.727C432.675 223.239 432.604 222.811 432.462 222.445C432.32 222.075 432.11 221.788 431.831 221.584C431.553 221.376 431.209 221.273 430.8 221.273C430.374 221.273 430.019 221.382 429.735 221.601C429.453 221.817 429.242 222.111 429.1 222.483C428.96 222.852 428.891 223.267 428.891 223.727C428.891 224.193 428.962 224.616 429.104 224.997C429.249 225.375 429.462 225.676 429.743 225.901C430.027 226.122 430.379 226.233 430.8 226.233ZM436.293 229.455C436.122 229.455 435.97 229.44 435.837 229.412C435.703 229.386 435.611 229.361 435.56 229.335L435.816 228.449C436.06 228.511 436.276 228.534 436.463 228.517C436.651 228.5 436.817 228.416 436.962 228.266C437.11 228.118 437.245 227.878 437.367 227.545L437.554 227.034L435.134 220.455H436.225L438.031 225.67H438.1L439.906 220.455H440.997L438.219 227.955C438.094 228.293 437.939 228.572 437.754 228.794C437.57 229.018 437.355 229.185 437.111 229.293C436.87 229.401 436.597 229.455 436.293 229.455Z" fill="#1C1C1C" fill-opacity="0.4"/>
<path d="M518.477 218.273H519.534V224.511C519.534 225.068 519.432 225.541 519.227 225.93C519.023 226.32 518.734 226.615 518.362 226.817C517.99 227.018 517.551 227.119 517.045 227.119C516.568 227.119 516.143 227.033 515.771 226.859C515.399 226.683 515.106 226.433 514.893 226.109C514.68 225.786 514.574 225.401 514.574 224.955H515.614C515.614 225.202 515.675 225.418 515.797 225.602C515.922 225.784 516.092 225.926 516.308 226.028C516.524 226.131 516.77 226.182 517.045 226.182C517.349 226.182 517.608 226.118 517.821 225.99C518.034 225.862 518.196 225.675 518.307 225.428C518.42 225.178 518.477 224.872 518.477 224.511V218.273ZM525.641 224.324V220.455H526.646V227H525.641V225.892H525.572C525.419 226.224 525.18 226.507 524.856 226.74C524.533 226.97 524.123 227.085 523.629 227.085C523.22 227.085 522.856 226.996 522.538 226.817C522.22 226.635 521.97 226.362 521.788 225.999C521.606 225.632 521.516 225.17 521.516 224.614V220.455H522.521V224.545C522.521 225.023 522.655 225.403 522.922 225.688C523.192 225.972 523.535 226.114 523.953 226.114C524.203 226.114 524.457 226.05 524.716 225.922C524.977 225.794 525.196 225.598 525.372 225.334C525.551 225.07 525.641 224.733 525.641 224.324ZM529.494 223.062V227H528.488V220.455H529.46V221.477H529.545C529.698 221.145 529.931 220.878 530.244 220.676C530.556 220.472 530.96 220.369 531.454 220.369C531.897 220.369 532.285 220.46 532.617 220.642C532.95 220.821 533.208 221.094 533.393 221.46C533.578 221.824 533.67 222.284 533.67 222.841V227H532.664V222.909C532.664 222.395 532.531 221.994 532.264 221.707C531.997 221.418 531.63 221.273 531.164 221.273C530.843 221.273 530.556 221.342 530.304 221.482C530.054 221.621 529.856 221.824 529.711 222.091C529.566 222.358 529.494 222.682 529.494 223.062Z" fill="#1C1C1C" fill-opacity="0.4"/>
<mask id="mask0_38671_1004" style="mask-type:alpha" maskUnits="userSpaceOnUse" x="20" y="48" width="538" height="109">
<rect x="20.0851" y="48.4694" width="537.851" height="107.603" fill="url(#paint0_radial_38671_1004)"/>
</mask>
<g mask="url(#mask0_38671_1004)">
<path opacity="0.2" d="M207.277 137.442C114.542 146.122 62.6724 129.635 20.234 108.653V248.674H557.787V68.6416C376.507 54.9791 315.207 127.34 207.277 137.442Z" fill="#1C1C1C"/>
<path opacity="0.4" d="M233.556 98.0526C123.781 59.6573 42.9031 120.063 20.234 140.778V248.674H557.787V48.4694C442.293 93.4027 431.116 167.152 233.556 98.0526Z" fill="#A8C5DA"/>
</g>
<path d="M20.234 108.653C62.6724 129.635 114.542 146.122 207.277 137.442C261.142 132.4 303.393 111.851 354.74 94.2278" stroke="#1C1C1C" stroke-width="3" stroke-linecap="round" stroke-linejoin="round"/>
<path d="M557.787 68.6415C467.568 61.842 407.066 76.3489 355.744 93.8841" stroke="#1C1C1C" stroke-width="3" stroke-linecap="round" stroke-linejoin="round" stroke-dasharray="3 10"/>
<path d="M20.234 140.778C42.9031 120.063 123.781 59.6573 233.556 98.0526C431.116 167.152 442.293 93.4027 557.787 48.4694" stroke="#A8C5DA" stroke-width="3" stroke-linecap="round" stroke-linejoin="round"/>
<path d="M207.277 137.298C260.228 132.342 301.955 112.401 352.132 94.9841" stroke="#1C1C1C" stroke-width="3" stroke-linecap="round" stroke-linejoin="round"/>
<defs>
<radialGradient id="paint0_radial_38671_1004" cx="0" cy="0" r="1" gradientTransform="matrix(3.03302 57.8733 -238.989 13.1178 264.747 61.4025)" gradientUnits="userSpaceOnUse">
<stop/>
<stop offset="1" stop-color="#D9D9D9" stop-opacity="0"/>
</radialGradient>
</defs>
</svg>
